<?xml version="1.0" encoding="utf-8"?>
<!-- Generator: Adobe Illustrator 21.0.0, SVG Export Plug-In . SVG Version: 6.00 Build 0)  -->
<svg version="1.1" xmlns="http://www.w3.org/2000/svg" xmlns:xlink="http://www.w3.org/1999/xlink" x="0px" y="0px"
	 viewBox="0 0 500 49.4" style="enable-background:new 0 0 500 49.4;" xml:space="preserve">
<style type="text/css">
	.st0{fill:#556885;}
	.st1{fill:#FFFFFF;}
</style>
<g id="Слой_3">
	<rect x="-0.2" y="-0.1" class="st0" width="500.4" height="49.4"/>
</g>
<g id="Слой_4">
	<g>
		<g>
			<path class="st1" d="M189.2,6.6h3.7c2.2,0,3.5,1.3,3.5,3.2v0c0,2.1-1.6,3.2-3.7,3.2h-1.5v2.7h-2V6.6z M192.8,11.2
				c1,0,1.6-0.6,1.6-1.4v0c0-0.9-0.6-1.4-1.6-1.4h-1.6v2.8H192.8z"/>
			<path class="st1" d="M197.8,11.9V6.6h2v5.2c0,1.5,0.7,2.3,2,2.3c1.2,0,2-0.7,2-2.2V6.6h2v5.2c0,2.8-1.6,4.1-4,4.1
				S197.8,14.6,197.8,11.9z"/>
			<path class="st1" d="M207.8,6.6h4.2c1,0,1.9,0.3,2.4,0.8c0.4,0.4,0.6,0.9,0.6,1.6v0c0,1-0.5,1.6-1.2,2c1.1,0.4,1.7,1,1.7,2.2v0
				c0,1.7-1.4,2.5-3.4,2.5h-4.4V6.6z M213.1,9.3c0-0.6-0.5-0.9-1.3-0.9h-2v1.9h1.9C212.5,10.3,213.1,10,213.1,9.3L213.1,9.3z
				 M212.1,12h-2.3v2h2.4c0.9,0,1.4-0.3,1.4-1v0C213.6,12.4,213.2,12,212.1,12z"/>
			<path class="st1" d="M217.3,6.6h2V14h4.6v1.8h-6.6V6.6z"/>
			<path class="st1" d="M225.5,6.6h2v9.1h-2V6.6z"/>
			<path class="st1" d="M229.1,14.4l1.2-1.4c0.8,0.7,1.7,1.1,2.7,1.1c0.8,0,1.3-0.3,1.3-0.9v0c0-0.5-0.3-0.8-1.8-1.2
				c-1.8-0.5-3-1-3-2.8v0c0-1.7,1.3-2.8,3.2-2.8c1.3,0,2.5,0.4,3.4,1.2l-1,1.5c-0.8-0.6-1.6-0.9-2.4-0.9c-0.8,0-1.2,0.4-1.2,0.8v0
				c0,0.6,0.4,0.8,2,1.2c1.9,0.5,2.9,1.1,2.9,2.7v0c0,1.8-1.4,2.8-3.4,2.8C231.6,15.9,230.2,15.4,229.1,14.4z"/>
			<path class="st1" d="M238.1,6.6h2v3.6h3.7V6.6h2v9.1h-2v-3.7h-3.7v3.7h-2V6.6z"/>
			<path class="st1" d="M248.1,6.6h6.9v1.8h-4.9v1.9h4.3v1.8h-4.3V14h5v1.8h-7V6.6z"/>
			<path class="st1" d="M256.8,6.6h3.6c2.9,0,4.9,2,4.9,4.5v0c0,2.6-2,4.6-4.9,4.6h-3.6V6.6z M258.9,8.4V14h1.6
				c1.6,0,2.8-1.1,2.8-2.7v0c0-1.6-1.1-2.8-2.8-2.8H258.9z"/>
			<path class="st1" d="M271,6.6h7v1.8h-5v1.9h4.4v1.8H273v3.5h-2V6.6z"/>
			<path class="st1" d="M279.6,6.6h4.2c1.2,0,2.1,0.3,2.7,0.9c0.5,0.5,0.8,1.2,0.8,2.1v0c0,1.5-0.8,2.4-2,2.8l2.2,3.3h-2.4l-2-2.9
				h-1.6v2.9h-2V6.6z M283.6,11.1c1,0,1.5-0.5,1.5-1.3v0c0-0.9-0.6-1.3-1.6-1.3h-2v2.6H283.6z"/>
			<path class="st1" d="M288.6,11.2L288.6,11.2c0-2.6,2.1-4.8,4.9-4.8c2.8,0,4.8,2.1,4.8,4.7v0c0,2.6-2.1,4.7-4.9,4.7
				C290.6,15.9,288.6,13.8,288.6,11.2z M296.2,11.2L296.2,11.2c0-1.6-1.2-2.9-2.8-2.9s-2.7,1.3-2.7,2.8v0c0,1.6,1.2,2.9,2.8,2.9
				S296.2,12.8,296.2,11.2z"/>
			<path class="st1" d="M300.1,6.6h2.2l2.4,3.9l2.4-3.9h2.2v9.1h-2v-6l-2.6,3.9h-0.1l-2.5-3.9v5.9h-2V6.6z"/>
		</g>
		<g>
			<path class="st1" d="M149.5,21.9h3.9l6.4,9.9l6.4-9.9h3.9v21h-3.7V27.8l-6.6,9.9h-0.1l-6.6-9.8v15h-3.6V21.9z"/>
			<path class="st1" d="M183,21.7h3.4l9.2,21.1h-3.9l-2.1-5.1h-9.9l-2.2,5.1h-3.8L183,21.7z M188.2,34.5l-3.6-8.4l-3.6,8.4H188.2z"
				/>
			<path class="st1" d="M199.2,21.9h8.3c4.9,0,8,2.8,8,7.1c0,4.7-3.8,7.2-8.4,7.2h-4.2v6.7h-3.7V21.9z M207.2,32.8
				c2.8,0,4.5-1.6,4.5-3.8c0-2.5-1.8-3.8-4.5-3.8h-4.3v7.6H207.2z"/>
			<path class="st1" d="M224.6,21.7h3.4l9.2,21.1h-3.9l-2.1-5.1h-9.9l-2.2,5.1h-3.8L224.6,21.7z M229.9,34.5l-3.6-8.4l-3.6,8.4
				H229.9z"/>
			<path class="st1" d="M240.9,21.9h3.7v17.6h11v3.4h-14.7V21.9z"/>
			<path class="st1" d="M266.9,21.7h3.4l9.2,21.1h-3.9l-2.1-5.1h-9.9l-2.2,5.1h-3.8L266.9,21.7z M272.1,34.5l-3.6-8.4l-3.6,8.4
				H272.1z"/>
			<path class="st1" d="M282.5,38.8h4v4.1h-4V38.8z"/>
			<path class="st1" d="M291.2,21.9h3.4l11.2,14.5V21.9h3.6v21h-3.1l-11.6-14.9v14.9h-3.6V21.9z"/>
			<path class="st1" d="M314.9,21.9h15.6v3.3h-11.9v5.5h10.5v3.3h-10.5v5.6h12v3.3h-15.7V21.9z"/>
			<path class="st1" d="M340.1,25.3h-6.7v-3.4h17v3.4h-6.7v17.6h-3.7V25.3z"/>
		</g>
	</g>
</g>
<g id="Прямоугольник_1__x2B__PUBLISHED_FROM__x2B__MAPALA.NET__x2B__Слой_1__x2B__snowy_x5F_mountain_x5F_png_x5F_by_x5F_absurdwordpreferred_xA0_Изображение_1_">
</g>
</svg>
