<?xml version="1.0" encoding="utf-8"?>
<!-- Generator: Adobe Illustrator 21.0.0, SVG Export Plug-In . SVG Version: 6.00 Build 0)  -->
<svg version="1.1" xmlns="http://www.w3.org/2000/svg" xmlns:xlink="http://www.w3.org/1999/xlink" x="0px" y="0px"
	 viewBox="0 0 500 49.4" style="enable-background:new 0 0 500 49.4;" xml:space="preserve">
<style type="text/css">
	.st0{fill:#556885;}
	.st1{fill:#FFFFFF;}
</style>
<g id="Слой_3">
	<rect x="-0.2" y="-0.1" class="st0" width="500.4" height="49.4"/>
</g>
<g id="Слой_4">
	<g>
		<g>
			<path class="st1" d="M149.5,21.9h3.9l6.4,9.9l6.4-9.9h3.9v21h-3.7V27.8l-6.6,9.9h-0.1l-6.6-9.8v15h-3.6V21.9z"/>
			<path class="st1" d="M183,21.7h3.4l9.2,21.1h-3.9l-2.1-5.1h-9.9l-2.2,5.1h-3.8L183,21.7z M188.2,34.5l-3.6-8.4l-3.6,8.4H188.2z"
				/>
			<path class="st1" d="M199.2,21.9h8.3c4.9,0,8,2.8,8,7.1c0,4.7-3.8,7.2-8.4,7.2h-4.2v6.7h-3.7V21.9z M207.2,32.8
				c2.8,0,4.5-1.6,4.5-3.8c0-2.5-1.8-3.8-4.5-3.8h-4.3v7.6H207.2z"/>
			<path class="st1" d="M224.6,21.7h3.4l9.2,21.1h-3.9l-2.1-5.1h-9.9l-2.2,5.1h-3.8L224.6,21.7z M229.9,34.5l-3.6-8.4l-3.6,8.4
				H229.9z"/>
			<path class="st1" d="M240.9,21.9h3.7v17.6h11v3.4h-14.7V21.9z"/>
			<path class="st1" d="M266.9,21.7h3.4l9.2,21.1h-3.9l-2.1-5.1h-9.9l-2.2,5.1h-3.8L266.9,21.7z M272.1,34.5l-3.6-8.4l-3.6,8.4
				H272.1z"/>
			<path class="st1" d="M282.5,38.8h4v4.1h-4V38.8z"/>
			<path class="st1" d="M291.2,21.9h3.4l11.2,14.5V21.9h3.6v21h-3.1l-11.6-14.9v14.9h-3.6V21.9z"/>
			<path class="st1" d="M314.9,21.9h15.6v3.3h-11.9v5.5h10.5v3.3h-10.5v5.6h12v3.3h-15.7V21.9z"/>
			<path class="st1" d="M340.1,25.3h-6.7v-3.4h17v3.4h-6.7v17.6h-3.7V25.3z"/>
		</g>
	</g>
	<g>
		<path class="st1" d="M177.9,12.5c0-2.7,2.1-4.8,5-4.8s5,2.1,5,4.8c0,2.7-2.1,4.8-5,4.8S177.9,15.2,177.9,12.5z M185.3,12.5
			c0-1.3-1-2.5-2.4-2.5c-1.4,0-2.3,1.1-2.3,2.5c0,1.3,1,2.5,2.4,2.5C184.3,15,185.3,13.9,185.3,12.5z"/>
		<path class="st1" d="M189.2,7.9h8.3v9.3H195v-7h-3.2v7h-2.6V7.9z"/>
		<path class="st1" d="M199.1,16.6l1-1.9c0.4,0.2,0.8,0.3,1,0.3c0.2,0,0.5-0.1,0.8-0.4l-3.6-6.8h2.9l2.1,4.4l2-4.4h2.8l-3.6,7.1
			c-0.8,1.7-1.7,2.3-3.1,2.3C200.5,17.3,199.7,17,199.1,16.6z"/>
		<path class="st1" d="M208.9,7.9h7.5v2.2h-4.9v1.1h1.8c2.1,0,3.7,1,3.7,3c0,1.9-1.4,3-3.6,3h-4.5V7.9z M213.2,15
			c0.8,0,1.2-0.3,1.2-1c0-0.6-0.5-0.9-1.2-0.9h-1.7V15H213.2z"/>
		<path class="st1" d="M217.2,17.1l0.2-2c0.1,0,0.5,0.1,0.6,0.1c0.7,0,1.4-0.4,1.4-6V7.9h7.1v9.3h-2.6v-7h-2.2v0.4
			c0,5.7-1.2,6.8-3,6.8C218,17.3,217.4,17.1,217.2,17.1z"/>
		<path class="st1" d="M228.1,7.9h2.5v5.2l3.6-5.2h2.4v9.3h-2.5v-5.2l-3.6,5.2h-2.4V7.9z"/>
		<path class="st1" d="M238.3,7.9h2.6v3.8l3.2-3.8h3l-3.5,4l3.6,5.3h-3.1l-2.3-3.4l-0.9,1v2.4h-2.6V7.9z"/>
		<path class="st1" d="M247,12.5c0-2.7,2.1-4.8,5-4.8s5,2.1,5,4.8c0,2.7-2.1,4.8-5,4.8C249.1,17.3,247,15.2,247,12.5z M254.4,12.5
			c0-1.3-1-2.5-2.4-2.5c-1.4,0-2.3,1.1-2.3,2.5c0,1.3,1,2.5,2.4,2.5C253.4,15,254.4,13.9,254.4,12.5z"/>
		<path class="st1" d="M258.3,7.9h4.8c1.2,0,2,0.3,2.5,0.8c0.4,0.4,0.6,0.9,0.6,1.5c0,1.1-0.6,1.7-1.4,2.1c1.1,0.4,1.8,1,1.8,2.3
			c0,1.6-1.3,2.6-3.5,2.6h-4.8V7.9z M262.4,11.6c0.8,0,1.2-0.3,1.2-0.8c0-0.5-0.4-0.8-1.2-0.8h-1.7v1.6H262.4z M262.8,15.1
			c0.8,0,1.2-0.3,1.2-0.9c0-0.5-0.4-0.8-1.3-0.8h-2v1.7H262.8z"/>
		<path class="st1" d="M270.7,7.8h2.5l3.9,9.3h-2.8l-0.7-1.7h-3.6l-0.7,1.7h-2.7L270.7,7.8z M273,13.5l-1-2.6l-1,2.6H273z"/>
		<path class="st1" d="M278.1,7.9h2.6v3.5h3.3V7.9h2.6v9.3h-2.6v-3.5h-3.3v3.5h-2.6V7.9z"/>
		<path class="st1" d="M287.8,12.5c0-2.7,2.1-4.8,5-4.8s5,2.1,5,4.8c0,2.7-2.1,4.8-5,4.8C289.9,17.3,287.8,15.2,287.8,12.5z
			 M295.2,12.5c0-1.3-1-2.5-2.4-2.5c-1.4,0-2.3,1.1-2.3,2.5c0,1.3,1,2.5,2.4,2.5C294.2,15,295.2,13.9,295.2,12.5z"/>
		<path class="st1" d="M302.8,7.9h2.6v3.5h3.3V7.9h2.6v9.3h-2.6v-3.5h-3.3v3.5h-2.6V7.9z"/>
		<path class="st1" d="M316.1,7.8h2.5l3.9,9.3h-2.8l-0.7-1.7h-3.6l-0.7,1.7h-2.7L316.1,7.8z M318.3,13.5l-1-2.6l-1,2.6H318.3z"/>
	</g>
</g>
<g id="Прямоугольник_1__x2B__PUBLISHED_FROM__x2B__MAPALA.NET__x2B__Слой_1__x2B__snowy_x5F_mountain_x5F_png_x5F_by_x5F_absurdwordpreferred_xA0_Изображение_1_">
</g>
</svg>
